# Blender v3.2.0 OBJ File: 'new1.blend'
# www.blender.org
o Cone.003_Cone.008
v -12.291552 1.000000 4.484966
v -12.281797 1.000000 4.485927
v -12.291552 3.000000 4.484966
v -12.301306 1.000000 4.485927
v -12.310686 1.000000 4.488772
v -12.301306 3.000000 4.485927
v -12.310686 3.000000 4.488772
v -12.319330 3.000000 4.493392
v -12.326907 3.000000 4.499610
v -12.319330 1.000000 4.493392
v -12.326907 1.000000 4.499610
v -12.333125 1.000000 4.507187
v -12.337746 1.000000 4.515832
v -12.333125 3.000000 4.507187
v -12.337746 3.000000 4.515832
v -12.340590 3.000000 4.525211
v -12.341552 3.000000 4.534966
v -12.340590 1.000000 4.525211
v -12.341552 1.000000 4.534966
v -12.340590 1.000000 4.544721
v -12.337746 1.000000 4.554100
v -12.340590 3.000000 4.544721
v -12.337746 3.000000 4.554100
v -12.333125 3.000000 4.562745
v -12.326907 3.000000 4.570322
v -12.333125 1.000000 4.562745
v -12.326907 1.000000 4.570322
v -12.319330 1.000000 4.576540
v -12.310686 1.000000 4.581160
v -12.319330 3.000000 4.576540
v -12.310686 3.000000 4.581160
v -12.301306 3.000000 4.584005
v -12.291552 3.000000 4.584966
v -12.301306 1.000000 4.584005
v -12.291552 1.000000 4.584966
v -12.281797 1.000000 4.584005
v -12.272417 1.000000 4.581160
v -12.281797 3.000000 4.584005
v -12.272417 3.000000 4.581160
v -12.263773 3.000000 4.576540
v -12.256196 3.000000 4.570322
v -12.263773 1.000000 4.576540
v -12.256196 1.000000 4.570322
v -12.249978 1.000000 4.562745
v -12.245358 1.000000 4.554100
v -12.249978 3.000000 4.562745
v -12.245358 3.000000 4.554100
v -12.242513 3.000000 4.544721
v -12.241551 3.000000 4.534966
v -12.242513 1.000000 4.544721
v -12.241551 1.000000 4.534966
v -12.242513 1.000000 4.525211
v -12.245358 1.000000 4.515832
v -12.242513 3.000000 4.525211
v -12.245358 3.000000 4.515832
v -12.249978 3.000000 4.507187
v -12.256196 3.000000 4.499610
v -12.249978 1.000000 4.507187
v -12.256196 1.000000 4.499610
v -12.263773 1.000000 4.493392
v -12.272417 1.000000 4.488772
v -12.263773 3.000000 4.493392
v -12.272417 3.000000 4.488772
v -12.281797 3.000000 4.485927
vt 0.985388 0.296822
vt 0.796822 0.014612
vt 0.514612 0.203178
vt 1.000000 1.000000
vt 0.968750 0.500000
vt 1.000000 0.500000
vt 0.031250 1.000000
vt 0.000000 0.500000
vt 0.031250 0.500000
vt 0.062500 1.000000
vt 0.062500 0.500000
vt 0.158156 0.028269
vt 0.471731 0.158156
vt 0.341844 0.471731
vt 0.093750 1.000000
vt 0.093750 0.500000
vt 0.125000 1.000000
vt 0.125000 0.500000
vt 0.156250 1.000000
vt 0.156250 0.500000
vt 0.187500 1.000000
vt 0.187500 0.500000
vt 0.218750 1.000000
vt 0.218750 0.500000
vt 0.250000 1.000000
vt 0.250000 0.500000
vt 0.281250 1.000000
vt 0.281250 0.500000
vt 0.312500 1.000000
vt 0.312500 0.500000
vt 0.343750 1.000000
vt 0.343750 0.500000
vt 0.375000 1.000000
vt 0.375000 0.500000
vt 0.406250 1.000000
vt 0.406250 0.500000
vt 0.437500 1.000000
vt 0.437500 0.500000
vt 0.468750 1.000000
vt 0.468750 0.500000
vt 0.500000 1.000000
vt 0.500000 0.500000
vt 0.531250 1.000000
vt 0.531250 0.500000
vt 0.562500 1.000000
vt 0.562500 0.500000
vt 0.593750 1.000000
vt 0.593750 0.500000
vt 0.625000 1.000000
vt 0.625000 0.500000
vt 0.656250 1.000000
vt 0.656250 0.500000
vt 0.687500 1.000000
vt 0.687500 0.500000
vt 0.718750 1.000000
vt 0.718750 0.500000
vt 0.750000 1.000000
vt 0.750000 0.500000
vt 0.781250 1.000000
vt 0.781250 0.500000
vt 0.812500 1.000000
vt 0.812500 0.500000
vt 0.843750 1.000000
vt 0.843750 0.500000
vt 0.875000 1.000000
vt 0.875000 0.500000
vt 0.906250 1.000000
vt 0.906250 0.500000
vt 0.937500 1.000000
vt 0.937500 0.500000
vt 0.968750 1.000000
vt 0.703178 0.485388
vt 0.750000 0.490000
vt 0.796822 0.485388
vt 0.841844 0.471731
vt 0.883337 0.449553
vt 0.919706 0.419706
vt 0.949553 0.383337
vt 0.971731 0.341844
vt 0.990000 0.250000
vt 0.985388 0.203178
vt 0.971731 0.158156
vt 0.949553 0.116663
vt 0.919706 0.080294
vt 0.883337 0.050447
vt 0.841844 0.028269
vt 0.750000 0.010000
vt 0.616663 0.050447
vt 0.703178 0.014612
vt 0.658156 0.028269
vt 0.580294 0.080294
vt 0.550447 0.116663
vt 0.528269 0.158156
vt 0.510000 0.250000
vt 0.514612 0.296822
vt 0.528269 0.341844
vt 0.550447 0.383337
vt 0.580294 0.419706
vt 0.616663 0.449553
vt 0.658156 0.471731
vt 0.000000 1.000000
vt 0.296822 0.485388
vt 0.250000 0.490000
vt 0.203178 0.485388
vt 0.158156 0.471731
vt 0.116663 0.449553
vt 0.028269 0.341844
vt 0.080294 0.419706
vt 0.050447 0.383337
vt 0.014612 0.296822
vt 0.010000 0.250000
vt 0.014612 0.203178
vt 0.028269 0.158156
vt 0.050447 0.116663
vt 0.080294 0.080294
vt 0.116663 0.050447
vt 0.203178 0.014612
vt 0.250000 0.010000
vt 0.296822 0.014612
vt 0.341844 0.028269
vt 0.383337 0.050447
vt 0.419706 0.080294
vt 0.449553 0.116663
vt 0.485388 0.203178
vt 0.471731 0.341844
vt 0.490000 0.250000
vt 0.485388 0.296822
vt 0.449553 0.383337
vt 0.419706 0.419706
vt 0.383337 0.449553
vn 0.0000 -1.0000 0.0000
vn 0.0980 0.0000 -0.9952
vn -0.0981 0.0000 -0.9952
vn -0.2902 0.0000 -0.9570
vn 0.0000 1.0000 0.0000
vn -0.4714 0.0000 -0.8819
vn -0.6344 0.0000 -0.7730
vn -0.7730 0.0000 -0.6344
vn -0.8819 0.0000 -0.4714
vn -0.9570 0.0000 -0.2902
vn -0.9952 0.0000 -0.0981
vn -0.9952 0.0000 0.0981
vn -0.9570 0.0000 0.2902
vn -0.8819 0.0000 0.4714
vn -0.7730 0.0000 0.6344
vn -0.6344 0.0000 0.7730
vn -0.4714 0.0000 0.8819
vn -0.2903 0.0000 0.9569
vn -0.0980 0.0000 0.9952
vn 0.0981 0.0000 0.9952
vn 0.2902 0.0000 0.9570
vn 0.4714 0.0000 0.8819
vn 0.6344 0.0000 0.7730
vn 0.7730 0.0000 0.6344
vn 0.8819 0.0000 0.4714
vn 0.9570 0.0000 0.2902
vn 0.9952 0.0000 0.0981
vn 0.9952 0.0000 -0.0981
vn 0.9570 0.0000 -0.2902
vn 0.8819 0.0000 -0.4714
vn 0.7730 0.0000 -0.6344
vn 0.6344 0.0000 -0.7730
vn 0.4714 0.0000 -0.8819
vn 0.2903 0.0000 -0.9569
vn 0.0981 0.0000 -0.9952
vn -0.0980 0.0000 -0.9952
vn -0.2903 0.0000 -0.9569
vn -0.2902 0.0000 0.9570
vn -0.0981 0.0000 0.9952
vn 0.0980 0.0000 0.9952
vn 0.2903 0.0000 0.9569
vn 0.2902 0.0000 -0.9570
s off
f 52/1/1 36/2/1 20/3/1
f 3/4/2 2/5/2 1/6/2
f 6/7/3 1/8/3 4/9/3
f 7/10/4 4/9/4 5/11/4
f 31/12/5 47/13/5 63/14/5
f 8/15/6 5/11/6 10/16/6
f 9/17/7 10/16/7 11/18/7
f 14/19/8 11/18/8 12/20/8
f 15/21/9 12/20/9 13/22/9
f 16/23/10 13/22/10 18/24/10
f 17/25/11 18/24/11 19/26/11
f 22/27/12 19/26/12 20/28/12
f 23/29/13 20/28/13 21/30/13
f 24/31/14 21/30/14 26/32/14
f 25/33/15 26/32/15 27/34/15
f 30/35/16 27/34/16 28/36/16
f 31/37/17 28/36/17 29/38/17
f 32/39/18 29/38/18 34/40/18
f 33/41/19 34/40/19 35/42/19
f 38/43/20 35/42/20 36/44/20
f 39/45/21 36/44/21 37/46/21
f 40/47/22 37/46/22 42/48/22
f 41/49/23 42/48/23 43/50/23
f 46/51/24 43/50/24 44/52/24
f 47/53/25 44/52/25 45/54/25
f 48/55/26 45/54/26 50/56/26
f 49/57/27 50/56/27 51/58/27
f 54/59/28 51/58/28 52/60/28
f 55/61/29 52/60/29 53/62/29
f 56/63/30 53/62/30 58/64/30
f 57/65/31 58/64/31 59/66/31
f 62/67/32 59/66/32 60/68/32
f 63/69/33 60/68/33 61/70/33
f 64/71/34 61/70/34 2/5/34
f 4/72/1 1/73/1 2/74/1
f 2/74/1 61/75/1 60/76/1
f 60/76/1 59/77/1 58/78/1
f 58/78/1 53/79/1 60/76/1
f 53/79/1 52/1/1 60/76/1
f 52/1/1 51/80/1 50/81/1
f 50/81/1 45/82/1 44/83/1
f 44/83/1 43/84/1 42/85/1
f 42/85/1 37/86/1 36/2/1
f 36/2/1 35/87/1 28/88/1
f 35/87/1 34/89/1 28/88/1
f 34/89/1 29/90/1 28/88/1
f 28/88/1 27/91/1 26/92/1
f 26/92/1 21/93/1 20/3/1
f 20/3/1 19/94/1 18/95/1
f 18/95/1 13/96/1 20/3/1
f 13/96/1 12/97/1 20/3/1
f 12/97/1 11/98/1 10/99/1
f 10/99/1 5/100/1 4/72/1
f 4/72/1 2/74/1 52/1/1
f 2/74/1 60/76/1 52/1/1
f 52/1/1 50/81/1 44/83/1
f 44/83/1 42/85/1 52/1/1
f 42/85/1 36/2/1 52/1/1
f 28/88/1 26/92/1 20/3/1
f 12/97/1 10/99/1 4/72/1
f 36/2/1 28/88/1 20/3/1
f 20/3/1 12/97/1 4/72/1
f 4/72/1 52/1/1 20/3/1
f 3/4/35 64/71/35 2/5/35
f 6/7/36 3/101/36 1/8/36
f 7/10/37 6/7/37 4/9/37
f 63/14/5 64/102/5 3/103/5
f 3/103/5 6/104/5 7/105/5
f 7/105/5 8/106/5 15/107/5
f 8/106/5 9/108/5 15/107/5
f 9/108/5 14/109/5 15/107/5
f 15/107/5 16/110/5 17/111/5
f 17/111/5 22/112/5 15/107/5
f 22/112/5 23/113/5 15/107/5
f 23/113/5 24/114/5 25/115/5
f 25/115/5 30/116/5 23/113/5
f 30/116/5 31/12/5 23/113/5
f 31/12/5 32/117/5 33/118/5
f 33/118/5 38/119/5 39/120/5
f 39/120/5 40/121/5 41/122/5
f 41/122/5 46/123/5 47/13/5
f 47/13/5 48/124/5 55/125/5
f 48/124/5 49/126/5 55/125/5
f 49/126/5 54/127/5 55/125/5
f 55/125/5 56/128/5 63/14/5
f 56/128/5 57/129/5 63/14/5
f 57/129/5 62/130/5 63/14/5
f 63/14/5 3/103/5 15/107/5
f 3/103/5 7/105/5 15/107/5
f 31/12/5 33/118/5 39/120/5
f 39/120/5 41/122/5 47/13/5
f 15/107/5 23/113/5 31/12/5
f 31/12/5 39/120/5 47/13/5
f 47/13/5 55/125/5 63/14/5
f 63/14/5 15/107/5 31/12/5
f 8/15/6 7/10/6 5/11/6
f 9/17/7 8/15/7 10/16/7
f 14/19/8 9/17/8 11/18/8
f 15/21/9 14/19/9 12/20/9
f 16/23/10 15/21/10 13/22/10
f 17/25/11 16/23/11 18/24/11
f 22/27/12 17/25/12 19/26/12
f 23/29/13 22/27/13 20/28/13
f 24/31/14 23/29/14 21/30/14
f 25/33/15 24/31/15 26/32/15
f 30/35/16 25/33/16 27/34/16
f 31/37/17 30/35/17 28/36/17
f 32/39/38 31/37/38 29/38/38
f 33/41/39 32/39/39 34/40/39
f 38/43/40 33/41/40 35/42/40
f 39/45/41 38/43/41 36/44/41
f 40/47/22 39/45/22 37/46/22
f 41/49/23 40/47/23 42/48/23
f 46/51/24 41/49/24 43/50/24
f 47/53/25 46/51/25 44/52/25
f 48/55/26 47/53/26 45/54/26
f 49/57/27 48/55/27 50/56/27
f 54/59/28 49/57/28 51/58/28
f 55/61/29 54/59/29 52/60/29
f 56/63/30 55/61/30 53/62/30
f 57/65/31 56/63/31 58/64/31
f 62/67/32 57/65/32 59/66/32
f 63/69/33 62/67/33 60/68/33
f 64/71/42 63/69/42 61/70/42
