# Blender v3.2.0 OBJ File: 'new1.blend'
# www.blender.org
o Cylinder.010_Cylinder.046
v 5.311153 1.156671 2.443114
v 5.335218 1.157431 2.445254
v 5.363133 2.851153 2.443114
v 5.287088 1.155910 2.445254
v 5.263948 1.155179 2.451593
v 5.339068 2.850392 2.445254
v 5.315928 2.849661 2.451593
v 5.294602 2.848987 2.461886
v 5.275909 2.848396 2.475739
v 5.242622 1.154505 2.461886
v 5.223929 1.153914 2.475739
v 5.208589 1.153429 2.492619
v 5.197190 1.153069 2.511877
v 5.260569 2.847911 2.492619
v 5.249170 2.847551 2.511877
v 5.242150 2.847329 2.532773
v 5.239780 2.847255 2.554504
v 5.190170 1.152847 2.532773
v 5.187800 1.152772 2.554504
v 5.190170 1.152847 2.576235
v 5.197190 1.153069 2.597131
v 5.242150 2.847329 2.576235
v 5.249170 2.847551 2.597131
v 5.260569 2.847911 2.616389
v 5.275909 2.848396 2.633268
v 5.208589 1.153429 2.616389
v 5.223929 1.153914 2.633268
v 5.242622 1.154505 2.647121
v 5.263948 1.155179 2.657414
v 5.294602 2.848987 2.647121
v 5.315928 2.849661 2.657414
v 5.339068 2.850392 2.663753
v 5.363133 2.851153 2.665894
v 5.287088 1.155910 2.663753
v 5.311153 1.156671 2.665894
v 5.335218 1.157431 2.663753
v 5.358358 1.158163 2.657414
v 5.387198 2.851913 2.663753
v 5.410338 2.852645 2.657414
v 5.431664 2.853319 2.647121
v 5.450356 2.853909 2.633268
v 5.379684 1.158837 2.647121
v 5.398376 1.159427 2.633268
v 5.413717 1.159912 2.616389
v 5.425116 1.160272 2.597131
v 5.465697 2.854394 2.616389
v 5.477096 2.854755 2.597131
v 5.484116 2.854977 2.576235
v 5.486486 2.855052 2.554504
v 5.432136 1.160494 2.576235
v 5.434506 1.160569 2.554504
v 5.432136 1.160494 2.532773
v 5.425116 1.160272 2.511877
v 5.484116 2.854977 2.532773
v 5.477096 2.854755 2.511877
v 5.465697 2.854394 2.492619
v 5.450356 2.853909 2.475739
v 5.413717 1.159912 2.492619
v 5.398376 1.159427 2.475739
v 5.379684 1.158837 2.461886
v 5.358358 1.158163 2.451593
v 5.431664 2.853319 2.461886
v 5.410338 2.852645 2.451593
v 5.387198 2.851913 2.445254
vt 0.616663 0.449553
vt 0.658156 0.471731
vt 0.883337 0.449553
vt 1.000000 0.500000
vt 0.968750 1.000000
vt 0.968750 0.500000
vt 0.031250 0.500000
vt 0.000000 1.000000
vt 0.000000 0.500000
vt 0.062500 0.500000
vt 0.031250 1.000000
vt 0.419706 0.419706
vt 0.383337 0.449553
vt 0.080294 0.419706
vt 0.093750 0.500000
vt 0.062500 1.000000
vt 0.125000 0.500000
vt 0.093750 1.000000
vt 0.156250 0.500000
vt 0.125000 1.000000
vt 0.187500 0.500000
vt 0.156250 1.000000
vt 0.218750 0.500000
vt 0.187500 1.000000
vt 0.250000 0.500000
vt 0.218750 1.000000
vt 0.281250 1.000000
vt 0.281250 0.500000
vt 0.312500 1.000000
vt 0.312500 0.500000
vt 0.343750 1.000000
vt 0.343750 0.500000
vt 0.375000 1.000000
vt 0.375000 0.500000
vt 0.406250 1.000000
vt 0.406250 0.500000
vt 0.437500 1.000000
vt 0.437500 0.500000
vt 0.468750 1.000000
vt 0.468750 0.500000
vt 0.500000 1.000000
vt 0.500000 0.500000
vt 0.531250 1.000000
vt 0.531250 0.500000
vt 0.562500 1.000000
vt 0.562500 0.500000
vt 0.593750 1.000000
vt 0.593750 0.500000
vt 0.625000 1.000000
vt 0.625000 0.500000
vt 0.656250 1.000000
vt 0.656250 0.500000
vt 0.687500 1.000000
vt 0.687500 0.500000
vt 0.718750 1.000000
vt 0.718750 0.500000
vt 0.750000 1.000000
vt 0.750000 0.500000
vt 0.781250 0.500000
vt 0.812500 0.500000
vt 0.781250 1.000000
vt 0.843750 0.500000
vt 0.812500 1.000000
vt 0.875000 0.500000
vt 0.843750 1.000000
vt 0.906250 0.500000
vt 0.875000 1.000000
vt 0.937500 0.500000
vt 0.906250 1.000000
vt 0.937500 1.000000
vt 0.703178 0.485388
vt 0.750000 0.490000
vt 0.796822 0.485388
vt 0.841844 0.471731
vt 0.919706 0.419706
vt 0.580294 0.419706
vt 0.949553 0.383337
vt 0.550447 0.383337
vt 0.971731 0.341844
vt 0.985388 0.296822
vt 0.528269 0.341844
vt 0.990000 0.250000
vt 0.510000 0.250000
vt 0.985388 0.203178
vt 0.514612 0.203178
vt 0.971731 0.158156
vt 0.949553 0.116663
vt 0.528269 0.158156
vt 0.919706 0.080294
vt 0.580294 0.080294
vt 0.883337 0.050447
vt 0.616663 0.050447
vt 0.841844 0.028269
vt 0.796822 0.014612
vt 0.658156 0.028269
vt 0.750000 0.010000
vt 0.703178 0.014612
vt 0.550447 0.116663
vt 0.514612 0.296822
vt 1.000000 1.000000
vt 0.341844 0.471731
vt 0.296822 0.485388
vt 0.158156 0.471731
vt 0.250000 0.490000
vt 0.203178 0.485388
vt 0.116663 0.449553
vt 0.050447 0.383337
vt 0.028269 0.341844
vt 0.449553 0.383337
vt 0.014612 0.296822
vt 0.485388 0.296822
vt 0.010000 0.250000
vt 0.490000 0.250000
vt 0.014612 0.203178
vt 0.485388 0.203178
vt 0.028269 0.158156
vt 0.471731 0.158156
vt 0.050447 0.116663
vt 0.080294 0.080294
vt 0.449553 0.116663
vt 0.116663 0.050447
vt 0.419706 0.080294
vt 0.158156 0.028269
vt 0.383337 0.050447
vt 0.203178 0.014612
vt 0.296822 0.014612
vt 0.250000 0.010000
vt 0.341844 0.028269
vt 0.471731 0.341844
vt 0.250000 1.000000
vn 0.0316 -0.9995 0.0000
vn 0.0887 -0.0027 -0.9961
vn -0.0887 0.0027 -0.9961
vn -0.2644 0.0081 -0.9644
vn -0.0316 0.9995 0.0000
vn -0.4350 0.0133 -0.9003
vn -0.5957 0.0183 -0.8030
vn -0.7402 0.0227 -0.6720
vn -0.8605 0.0264 -0.5088
vn -0.9476 0.0291 -0.3180
vn -0.9937 0.0305 -0.1083
vn -0.9937 0.0305 0.1083
vn -0.9476 0.0291 0.3180
vn -0.8605 0.0264 0.5088
vn -0.7402 0.0227 0.6720
vn -0.5957 0.0183 0.8030
vn -0.4350 0.0133 0.9003
vn -0.2644 0.0081 0.9644
vn -0.0887 0.0027 0.9961
vn 0.0887 -0.0027 0.9961
vn 0.2644 -0.0081 0.9644
vn 0.4350 -0.0133 0.9003
vn 0.5957 -0.0183 0.8030
vn 0.7402 -0.0227 0.6720
vn 0.8605 -0.0264 0.5088
vn 0.9476 -0.0291 0.3180
vn 0.9937 -0.0305 0.1083
vn 0.9937 -0.0305 -0.1083
vn 0.9476 -0.0291 -0.3180
vn 0.8605 -0.0264 -0.5088
vn 0.7402 -0.0227 -0.6720
vn 0.5957 -0.0183 -0.8030
vn 0.4350 -0.0133 -0.9003
vn 0.2644 -0.0081 -0.9644
vn -0.0316 0.9995 -0.0001
vn -0.0316 0.9995 0.0001
s off
f 10/1/1 5/2/1 60/3/1
f 1/4/2 64/5/2 2/6/2
f 4/7/3 3/8/3 1/9/3
f 5/10/4 6/11/4 4/7/4
f 57/12/5 62/13/5 9/14/5
f 10/15/6 7/16/6 5/10/6
f 11/17/7 8/18/7 10/15/7
f 12/19/8 9/20/8 11/17/8
f 13/21/9 14/22/9 12/19/9
f 18/23/10 15/24/10 13/21/10
f 19/25/11 16/26/11 18/23/11
f 22/27/12 19/25/12 20/28/12
f 23/29/13 20/28/13 21/30/13
f 24/31/14 21/30/14 26/32/14
f 25/33/15 26/32/15 27/34/15
f 30/35/16 27/34/16 28/36/16
f 31/37/17 28/36/17 29/38/17
f 32/39/18 29/38/18 34/40/18
f 33/41/19 34/40/19 35/42/19
f 38/43/20 35/42/20 36/44/20
f 39/45/21 36/44/21 37/46/21
f 40/47/22 37/46/22 42/48/22
f 41/49/23 42/48/23 43/50/23
f 46/51/24 43/50/24 44/52/24
f 47/53/25 44/52/25 45/54/25
f 48/55/26 45/54/26 50/56/26
f 49/57/27 50/56/27 51/58/27
f 52/59/28 49/57/28 51/58/28
f 53/60/29 54/61/29 52/59/29
f 58/62/30 55/63/30 53/60/30
f 59/64/31 56/65/31 58/62/31
f 60/66/32 57/67/32 59/64/32
f 61/68/33 62/69/33 60/66/33
f 2/6/34 63/70/34 61/68/34
f 4/71/1 1/72/1 2/73/1
f 2/73/1 61/74/1 4/71/1
f 61/74/1 60/3/1 5/2/1
f 4/71/1 61/74/1 5/2/1
f 60/3/1 59/75/1 11/76/1
f 59/75/1 58/77/1 12/78/1
f 58/77/1 53/79/1 12/78/1
f 53/79/1 52/80/1 13/81/1
f 12/78/1 53/79/1 13/81/1
f 52/80/1 51/82/1 19/83/1
f 51/82/1 50/84/1 20/85/1
f 50/84/1 45/86/1 20/85/1
f 45/86/1 44/87/1 21/88/1
f 20/85/1 45/86/1 21/88/1
f 44/87/1 43/89/1 27/90/1
f 43/89/1 42/91/1 28/92/1
f 42/91/1 37/93/1 28/92/1
f 37/93/1 36/94/1 29/95/1
f 28/92/1 37/93/1 29/95/1
f 36/94/1 35/96/1 34/97/1
f 34/97/1 29/95/1 36/94/1
f 28/92/1 27/90/1 43/89/1
f 27/90/1 26/98/1 44/87/1
f 26/98/1 21/88/1 44/87/1
f 20/85/1 19/83/1 51/82/1
f 19/83/1 18/99/1 52/80/1
f 18/99/1 13/81/1 52/80/1
f 12/78/1 11/76/1 59/75/1
f 11/76/1 10/1/1 60/3/1
f 1/4/2 3/100/2 64/5/2
f 4/7/3 6/11/3 3/8/3
f 5/10/4 7/16/4 6/11/4
f 63/101/5 64/102/5 7/103/5
f 64/102/5 3/104/5 6/105/5
f 7/103/5 64/102/5 6/105/5
f 7/103/35 8/106/35 63/101/35
f 8/106/5 9/14/5 62/13/5
f 63/101/5 8/106/5 62/13/5
f 9/14/5 14/107/5 57/12/5
f 14/107/5 15/108/5 56/109/5
f 57/12/5 14/107/5 56/109/5
f 15/108/5 16/110/5 54/111/5
f 16/110/5 17/112/5 49/113/5
f 17/112/5 22/114/5 48/115/5
f 22/114/5 23/116/5 47/117/5
f 23/116/5 24/118/5 47/117/5
f 24/118/5 25/119/5 46/120/5
f 47/117/5 24/118/5 46/120/5
f 25/119/5 30/121/5 41/122/5
f 30/121/5 31/123/5 40/124/5
f 41/122/5 30/121/5 40/124/5
f 31/123/5 32/125/5 38/126/5
f 32/125/5 33/127/5 38/126/5
f 38/126/35 39/128/35 31/123/35
f 39/128/36 40/124/36 31/123/36
f 41/122/5 46/120/5 25/119/5
f 47/117/5 48/115/5 22/114/5
f 48/115/5 49/113/5 17/112/5
f 49/113/5 54/111/5 16/110/5
f 54/111/5 55/129/5 15/108/5
f 55/129/5 56/109/5 15/108/5
f 10/15/6 8/18/6 7/16/6
f 11/17/7 9/20/7 8/18/7
f 12/19/8 14/22/8 9/20/8
f 13/21/9 15/24/9 14/22/9
f 18/23/10 16/26/10 15/24/10
f 19/25/11 17/130/11 16/26/11
f 22/27/12 17/130/12 19/25/12
f 23/29/13 22/27/13 20/28/13
f 24/31/14 23/29/14 21/30/14
f 25/33/15 24/31/15 26/32/15
f 30/35/16 25/33/16 27/34/16
f 31/37/17 30/35/17 28/36/17
f 32/39/18 31/37/18 29/38/18
f 33/41/19 32/39/19 34/40/19
f 38/43/20 33/41/20 35/42/20
f 39/45/21 38/43/21 36/44/21
f 40/47/22 39/45/22 37/46/22
f 41/49/23 40/47/23 42/48/23
f 46/51/24 41/49/24 43/50/24
f 47/53/25 46/51/25 44/52/25
f 48/55/26 47/53/26 45/54/26
f 49/57/27 48/55/27 50/56/27
f 52/59/28 54/61/28 49/57/28
f 53/60/29 55/63/29 54/61/29
f 58/62/30 56/65/30 55/63/30
f 59/64/31 57/67/31 56/65/31
f 60/66/32 62/69/32 57/67/32
f 61/68/33 63/70/33 62/69/33
f 2/6/34 64/5/34 63/70/34
