# Blender v3.2.0 OBJ File: 'new1.blend'
# www.blender.org
o Room_temp
v -1.296286 1.258000 14.400484
v 0.074056 4.860000 16.367407
v 0.074056 1.160000 16.367407
v 1.573985 1.160000 16.382011
v 1.573985 3.560000 16.382011
v -1.296286 3.358000 14.400484
v 1.622671 3.560000 11.382250
v 1.622671 1.160000 11.382250
v 0.122742 4.860000 11.367643
v 0.122742 1.160000 11.367643
v -1.377187 1.160000 11.353037
v -1.377187 3.560000 11.353037
v -1.425873 3.560000 16.352800
v -1.425873 1.160000 16.352800
v 0.075224 4.860000 16.247412
v 0.075224 1.160000 16.247412
v 1.455159 1.160000 16.260849
v 1.455159 3.560000 16.260849
v 1.501508 3.560000 11.501075
v 1.501508 1.160000 11.501075
v 0.121574 4.860000 11.487638
v 0.121574 1.160000 11.487638
v -1.258361 1.160000 11.474199
v -1.258361 3.560000 11.474199
v -1.304711 3.560000 16.233974
v -1.304711 1.160000 16.233974
v -1.406806 1.258000 14.394757
v -1.397060 1.258000 13.393921
v -1.406806 3.358000 14.394757
v -1.397060 3.358000 13.393921
v -1.284674 3.358000 14.176382
v -1.277115 3.358000 13.400136
v -1.277115 1.258000 13.400136
v -1.284674 1.258000 14.176382
vt 0.043276 0.000069
vt 0.123043 0.049923
vt 0.000069 0.049923
vt 0.043276 0.099777
vt 0.123043 0.265958
vt 0.123043 0.099777
vt 0.043276 0.265958
vt 0.123043 0.315812
vt 0.000069 0.315812
vt 0.043276 0.365667
vt 0.123043 0.531847
vt 0.049990 0.466766
vt 0.119786 0.466766
vt 0.123043 0.365667
vt 0.049990 0.433501
vt 0.043276 0.000069
vt 0.123043 0.049923
vt 0.123043 0.000069
vt 0.043276 0.099777
vt 0.000069 0.049923
vt 0.123043 0.265958
vt 0.123043 0.099777
vt 0.043276 0.265958
vt 0.123043 0.315812
vt 0.043276 0.365667
vt 0.000069 0.315812
vt 0.043276 0.531847
vt 0.123043 0.531847
vt 0.049990 0.460009
vt 0.123043 0.365667
vt 0.049990 0.432908
vt 0.119786 0.432908
vt 0.043276 0.531847
vt 0.000000 0.000000
vt 0.000000 0.000000
vt 0.000000 0.000000
vt 0.000000 0.000000
vt 0.000000 0.000000
vt 0.000000 0.000000
vt 0.000000 0.000000
vt 0.000000 0.000000
vt 0.000000 0.000000
vt 0.123043 0.000069
vt 0.119786 0.433501
vt 0.119786 0.460009
vt 0.000000 0.000000
vn -0.0097 0.0000 1.0000
vn 1.0000 0.0000 0.0097
vn 0.0097 0.0000 -1.0000
vn -1.0000 0.0000 -0.0097
vn 0.0000 -1.0000 0.0000
vn 0.6857 0.7279 0.0067
vn 0.0000 1.0000 0.0000
vn 0.5425 0.6322 0.5532
vn -0.6857 0.7279 -0.0067
vn -0.5425 0.6322 -0.5532
vn 0.0517 0.0000 -0.9987
vn -0.9987 0.0000 -0.0517
vn -0.0517 0.0000 0.9987
vn 0.5532 0.6322 -0.5425
vn -0.5532 0.6322 0.5425
vn 0.0518 0.0000 -0.9987
vn -0.0518 0.0000 0.9987
s off
f 13/1/1 3/2/1 2/3/1
f 3/2/1 5/4/1 2/3/1
f 8/5/2 5/4/2 4/6/2
f 7/7/3 10/8/3 9/9/3
f 10/8/3 12/10/3 9/9/3
f 14/11/4 29/12/4 27/13/4
f 12/10/4 11/14/4 30/15/4
f 25/16/3 16/17/3 26/18/3
f 18/19/3 16/17/3 15/20/3
f 18/19/4 20/21/4 17/22/4
f 19/23/1 22/24/1 20/21/1
f 24/25/1 22/24/1 21/26/1
f 25/27/2 26/28/2 31/29/2
f 23/30/2 32/31/2 33/32/2
f 3/2/5 17/22/5 4/6/5
f 2/3/6 18/19/6 15/20/6
f 7/7/7 18/19/7 5/4/7
f 4/6/5 20/21/5 8/5/5
f 9/9/8 19/23/8 7/7/8
f 10/8/5 20/21/5 22/24/5
f 10/8/5 23/30/5 11/14/5
f 9/9/9 24/25/9 21/26/9
f 13/33/7 24/25/7 12/10/7
f 11/14/5 26/28/5 14/11/5
f 2/3/10 25/16/10 13/1/10
f 3/2/5 26/18/5 16/17/5
f 27/34/7 34/35/7 28/36/7
f 1/37/11 29/38/11 6/39/11
f 6/39/12 34/35/12 1/37/12
f 28/36/13 32/40/13 30/41/13
f 30/41/5 32/40/5 31/42/5
f 13/1/1 14/43/1 3/2/1
f 3/2/1 4/6/1 5/4/1
f 8/5/2 7/7/2 5/4/2
f 7/7/3 8/5/3 10/8/3
f 10/8/3 11/14/3 12/10/3
f 14/11/4 13/33/4 29/12/4
f 30/15/4 29/12/4 13/33/4
f 11/14/4 14/11/4 28/44/4
f 14/11/4 27/13/4 28/44/4
f 30/15/4 13/33/4 12/10/4
f 11/14/4 28/44/4 30/15/4
f 25/16/3 15/20/3 16/17/3
f 18/19/3 17/22/3 16/17/3
f 18/19/4 19/23/4 20/21/4
f 19/23/1 21/26/1 22/24/1
f 24/25/1 23/30/1 22/24/1
f 31/29/2 32/31/2 24/25/2
f 26/28/2 23/30/2 34/45/2
f 23/30/2 33/32/2 34/45/2
f 31/29/2 24/25/2 25/27/2
f 26/28/2 34/45/2 31/29/2
f 23/30/2 24/25/2 32/31/2
f 3/2/5 16/17/5 17/22/5
f 2/3/14 5/4/14 18/19/14
f 7/7/7 19/23/7 18/19/7
f 4/6/5 17/22/5 20/21/5
f 9/9/6 21/26/6 19/23/6
f 10/8/5 8/5/5 20/21/5
f 10/8/5 22/24/5 23/30/5
f 9/9/15 12/10/15 24/25/15
f 13/33/7 25/27/7 24/25/7
f 11/14/5 23/30/5 26/28/5
f 2/3/9 15/20/9 25/16/9
f 3/2/5 14/43/5 26/18/5
f 1/37/7 34/35/7 27/34/7
f 34/35/7 33/46/7 28/36/7
f 1/37/16 27/34/16 29/38/16
f 6/39/12 31/42/12 34/35/12
f 28/36/17 33/46/17 32/40/17
f 31/42/5 6/39/5 29/38/5
f 29/38/5 30/41/5 31/42/5
o Floor
v 0.074056 1.160000 16.367407
v 1.573985 1.160000 16.382011
v 1.622671 1.160000 11.382250
v 0.122742 1.160000 11.367643
v -1.377187 1.160000 11.353037
v -1.425873 1.160000 16.352800
vt 0.361218 0.309655
vt 0.361218 0.381066
vt 0.123181 0.381066
vt 0.123181 0.309655
vt 0.123181 0.238244
vt 0.361218 0.238244
vn 0.0000 1.0000 0.0000
s off
f 38/47/18 39/48/18 40/49/18
f 40/49/18 35/50/18 38/47/18
f 35/50/18 36/51/18 38/47/18
f 36/51/18 37/52/18 38/47/18
