# Blender v3.2.0 OBJ File: 'new1.blend'
# www.blender.org
o Room.005_temp.005
v -5.072654 1.258000 -16.595697
v -3.043899 4.860000 -17.872715
v -3.043899 1.160000 -17.872715
v -2.959281 1.160000 -19.370325
v -2.959281 3.560000 -19.370325
v -5.072654 3.358000 -16.595697
v -7.951318 3.560000 -19.652386
v -7.951318 1.160000 -19.652386
v -8.035936 4.860000 -18.154774
v -8.035936 1.160000 -18.154774
v -8.120554 1.160000 -16.657164
v -8.120554 3.560000 -16.657164
v -3.128517 3.560000 -16.375103
v -3.128517 1.160000 -16.375103
v -3.163707 4.860000 -17.879484
v -3.163707 1.160000 -17.879484
v -3.085859 1.160000 -19.257286
v -3.085859 3.560000 -19.257286
v -7.838279 3.560000 -19.525806
v -7.838279 1.160000 -19.525806
v -7.916127 4.860000 -18.148005
v -7.916127 1.160000 -18.148005
v -7.993976 1.160000 -16.770203
v -7.993976 3.560000 -16.770203
v -3.241556 3.560000 -16.501682
v -3.241556 1.160000 -16.501682
v -5.083534 1.258000 -16.485565
v -6.082824 1.258000 -16.542027
v -5.083534 3.358000 -16.485565
v -6.082824 3.358000 -16.542027
v -5.296006 3.358000 -16.617762
v -6.071016 3.358000 -16.661552
v -6.071016 1.258000 -16.661552
v -5.296006 1.258000 -16.617762
vt 0.043276 0.000069
vt 0.123043 0.049923
vt 0.000069 0.049923
vt 0.043276 0.099777
vt 0.123043 0.265958
vt 0.123043 0.099777
vt 0.043276 0.265958
vt 0.123043 0.315812
vt 0.000069 0.315812
vt 0.043276 0.365667
vt 0.123043 0.531847
vt 0.049990 0.466766
vt 0.119786 0.466766
vt 0.123043 0.365667
vt 0.049990 0.433501
vt 0.043276 0.000069
vt 0.123043 0.049923
vt 0.123043 0.000069
vt 0.043276 0.099777
vt 0.000069 0.049923
vt 0.123043 0.265958
vt 0.123043 0.099777
vt 0.043276 0.265958
vt 0.123043 0.315812
vt 0.043276 0.365667
vt 0.000069 0.315812
vt 0.043276 0.531847
vt 0.123043 0.531847
vt 0.049990 0.460008
vt 0.123043 0.365667
vt 0.049990 0.432908
vt 0.119786 0.432908
vt 0.043276 0.531847
vt 0.000000 0.000000
vt 0.000000 0.000000
vt 0.000000 0.000000
vt 0.000000 0.000000
vt 0.000000 0.000000
vt 0.000000 0.000000
vt 0.000000 0.000000
vt 0.000000 0.000000
vt 0.000000 0.000000
vt 0.123043 0.000069
vt 0.119786 0.433501
vt 0.119786 0.460008
vt 0.000000 0.000000
vn 0.9984 0.0000 0.0564
vn 0.0564 0.0000 -0.9984
vn -0.9984 0.0000 -0.0564
vn -0.0564 0.0000 0.9984
vn 0.0000 -1.0000 0.0000
vn 0.0387 0.7279 -0.6846
vn 0.0000 1.0000 -0.0000
vn 0.5779 0.6322 -0.5161
vn -0.0387 0.7279 0.6846
vn -0.5779 0.6322 0.5161
vn -0.9952 0.0000 -0.0983
vn -0.0983 0.0000 0.9952
vn 0.9952 0.0000 0.0983
vn -0.5161 0.6322 -0.5779
vn 0.5161 0.6322 0.5779
s off
f 13/1/1 3/2/1 2/3/1
f 3/2/1 5/4/1 2/3/1
f 8/5/2 5/4/2 4/6/2
f 7/7/3 10/8/3 9/9/3
f 10/8/3 12/10/3 9/9/3
f 14/11/4 29/12/4 27/13/4
f 12/10/4 11/14/4 30/15/4
f 25/16/3 16/17/3 26/18/3
f 18/19/3 16/17/3 15/20/3
f 18/19/4 20/21/4 17/22/4
f 19/23/1 22/24/1 20/21/1
f 24/25/1 22/24/1 21/26/1
f 25/27/2 26/28/2 31/29/2
f 23/30/2 32/31/2 33/32/2
f 3/2/5 17/22/5 4/6/5
f 2/3/6 18/19/6 15/20/6
f 7/7/7 18/19/7 5/4/7
f 4/6/5 20/21/5 8/5/5
f 9/9/8 19/23/8 7/7/8
f 10/8/5 20/21/5 22/24/5
f 10/8/5 23/30/5 11/14/5
f 9/9/9 24/25/9 21/26/9
f 13/33/7 24/25/7 12/10/7
f 11/14/5 26/28/5 14/11/5
f 2/3/10 25/16/10 13/1/10
f 3/2/5 26/18/5 16/17/5
f 27/34/7 34/35/7 28/36/7
f 1/37/11 29/38/11 6/39/11
f 6/39/12 34/35/12 1/37/12
f 28/36/13 32/40/13 30/41/13
f 30/41/5 32/40/5 31/42/5
f 13/1/1 14/43/1 3/2/1
f 3/2/1 4/6/1 5/4/1
f 8/5/2 7/7/2 5/4/2
f 7/7/3 8/5/3 10/8/3
f 10/8/3 11/14/3 12/10/3
f 14/11/4 13/33/4 29/12/4
f 30/15/4 29/12/4 13/33/4
f 11/14/4 14/11/4 28/44/4
f 14/11/4 27/13/4 28/44/4
f 30/15/4 13/33/4 12/10/4
f 11/14/4 28/44/4 30/15/4
f 25/16/3 15/20/3 16/17/3
f 18/19/3 17/22/3 16/17/3
f 18/19/4 19/23/4 20/21/4
f 19/23/1 21/26/1 22/24/1
f 24/25/1 23/30/1 22/24/1
f 31/29/2 32/31/2 24/25/2
f 26/28/2 23/30/2 34/45/2
f 23/30/2 33/32/2 34/45/2
f 31/29/2 24/25/2 25/27/2
f 26/28/2 34/45/2 31/29/2
f 23/30/2 24/25/2 32/31/2
f 3/2/5 16/17/5 17/22/5
f 2/3/14 5/4/14 18/19/14
f 7/7/7 19/23/7 18/19/7
f 4/6/5 17/22/5 20/21/5
f 9/9/6 21/26/6 19/23/6
f 10/8/5 8/5/5 20/21/5
f 10/8/5 22/24/5 23/30/5
f 9/9/15 12/10/15 24/25/15
f 13/33/7 25/27/7 24/25/7
f 11/14/5 23/30/5 26/28/5
f 2/3/9 15/20/9 25/16/9
f 3/2/5 14/43/5 26/18/5
f 1/37/7 34/35/7 27/34/7
f 34/35/7 33/46/7 28/36/7
f 1/37/11 27/34/11 29/38/11
f 6/39/12 31/42/12 34/35/12
f 28/36/13 33/46/13 32/40/13
f 31/42/5 6/39/5 29/38/5
f 29/38/5 30/41/5 31/42/5
o Floor.005
v -3.043899 1.160000 -17.872715
v -2.959281 1.160000 -19.370325
v -7.951318 1.160000 -19.652386
v -8.035936 1.160000 -18.154774
v -8.120554 1.160000 -16.657164
v -3.128517 1.160000 -16.375103
vt 0.361218 0.309655
vt 0.361218 0.381066
vt 0.123181 0.381066
vt 0.123181 0.309655
vt 0.123181 0.238244
vt 0.361218 0.238244
vn 0.0000 1.0000 0.0000
s off
f 38/47/16 39/48/16 40/49/16
f 40/49/16 35/50/16 38/47/16
f 35/50/16 36/51/16 38/47/16
f 36/51/16 37/52/16 38/47/16
